<svg id="kity_svg_6" xmlns="http://www.w3.org/2000/svg" xmlns:xlink="http://www.w3.org/1999/xlink" version="1.1" width="1014" height="1261" style="background: rgb(251, 251, 251); visibility: visible;" viewBox="0 0 1014 1261"><defs id="kity_defs_7"><linearGradient id="kity_linearGradient_17" x1="0" y1="0" x2="0" y2="1"><stop id="kity_stop_18" offset="0" stop-color="rgb(255, 255, 255)"></stop><stop id="kity_stop_19" offset="1" stop-color="rgb(204, 204, 204)"></stop></linearGradient><marker id="kity_marker_2" orient="auto" refX="6" refY="0" viewBox="-7 -7 14 14" markerWidth="7" markerHeight="7" markerUnits="userSpaceOnUse"><path id="kity_path_3" fill="rgb(115, 161, 191)" stroke="none" d="M6,0A6,6,0,1,1,-6,0A6,6,0,1,1,6,0"></path></marker></defs><g id="kity_g_8"><g id="minder1" text-rendering="geometricPrecision"><g id="minder_connect_group1"><path id="kity_path_31" fill="none" stroke="rgb(115, 161, 191)" stroke-width="1" d="M546,720.5A89.5,0,0,0,1,456.5,720.5"></path><path id="kity_path_47" fill="none" stroke="rgb(115, 161, 191)" stroke-width="1" d="M546,720.5A83.5,402,0,0,1,629.5,318.5"></path><path id="kity_path_634" fill="none" stroke="rgb(115, 161, 191)" stroke-width="1" d="M166.5,123.5C151.5,123.5,151.5,45.5,136.5,45.5L22.5,45.5"></path><path id="kity_path_635" fill="none" stroke="rgb(115, 161, 191)" stroke-width="1" d="M166.5,123.5C151.5,123.5,151.5,97.5,136.5,97.5L81.5,97.5"></path><path id="kity_path_636" fill="none" stroke="rgb(115, 161, 191)" stroke-width="1" d="M166.5,123.5C151.5,123.5,151.5,149.5,136.5,149.5L82.5,149.5"></path><path id="kity_path_637" fill="none" stroke="rgb(115, 161, 191)" stroke-width="1" d="M166.5,123.5C151.5,123.5,151.5,201.5,136.5,201.5L81.5,201.5"></path><path id="kity_path_638" fill="none" stroke="rgb(115, 161, 191)" stroke-width="1" d="M274.5,305.5C259.5,305.5,259.5,123.5,244.5,123.5L166.5,123.5"></path><path id="kity_path_639" fill="none" stroke="rgb(115, 161, 191)" stroke-width="1" d="M153.5,305.5C138.5,305.5,138.5,253.5,123.5,253.5L21.5,253.5"></path><path id="kity_path_640" fill="none" stroke="rgb(115, 161, 191)" stroke-width="1" d="M153.5,305.5C138.5,305.5,138.5,305.5,123.5,305.5L57.5,305.5"></path><path id="kity_path_641" fill="none" stroke="rgb(115, 161, 191)" stroke-width="1" d="M153.5,305.5C138.5,305.5,138.5,357.5,123.5,357.5L20.5,357.5"></path><path id="kity_path_642" fill="none" stroke="rgb(115, 161, 191)" stroke-width="1" d="M274.5,305.5C259.5,305.5,259.5,305.5,244.5,305.5L153.5,305.5"></path><path id="kity_path_643" fill="none" stroke="rgb(115, 161, 191)" stroke-width="1" d="M166.5,487.5C151.5,487.5,151.5,409.5,136.5,409.5L70.5,409.5"></path><path id="kity_path_644" fill="none" stroke="rgb(115, 161, 191)" stroke-width="1" d="M166.5,487.5C151.5,487.5,151.5,461.5,136.5,461.5L58.5,461.5"></path><path id="kity_path_645" fill="none" stroke="rgb(115, 161, 191)" stroke-width="1" d="M166.5,487.5C151.5,487.5,151.5,513.5,136.5,513.5L22.5,513.5"></path><path id="kity_path_646" fill="none" stroke="rgb(115, 161, 191)" stroke-width="1" d="M166.5,487.5C151.5,487.5,151.5,565.5,136.5,565.5L58.5,565.5"></path><path id="kity_path_647" fill="none" stroke="rgb(115, 161, 191)" stroke-width="1" d="M274.5,305.5C259.5,305.5,259.5,487.5,244.5,487.5L166.5,487.5"></path><path id="kity_path_648" fill="none" stroke="rgb(115, 161, 191)" stroke-width="1" d="M358.5,720.5C343.5,720.5,343.5,305.5,328.5,305.5L274.5,305.5"></path><path id="kity_path_649" fill="none" stroke="rgb(115, 161, 191)" stroke-width="1" d="M190.5,643.5C175.5,643.5,175.5,617.5,160.5,617.5L82.5,617.5"></path><path id="kity_path_650" fill="none" stroke="rgb(115, 161, 191)" stroke-width="1" d="M190.5,643.5C175.5,643.5,175.5,669.5,160.5,669.5L82.5,669.5"></path><path id="kity_path_651" fill="none" stroke="rgb(115, 161, 191)" stroke-width="1" d="M274.5,825.5C259.5,825.5,259.5,643.5,244.5,643.5L190.5,643.5"></path><path id="kity_path_652" fill="none" stroke="rgb(115, 161, 191)" stroke-width="1" d="M190.5,773.5C175.5,773.5,175.5,721.5,160.5,721.5L106.5,721.5"></path><path id="kity_path_653" fill="none" stroke="rgb(115, 161, 191)" stroke-width="1" d="M190.5,773.5C175.5,773.5,175.5,773.5,160.5,773.5L70.5,773.5"></path><path id="kity_path_654" fill="none" stroke="rgb(115, 161, 191)" stroke-width="1" d="M190.5,773.5C175.5,773.5,175.5,825.5,160.5,825.5L94.5,825.5"></path><path id="kity_path_655" fill="none" stroke="rgb(115, 161, 191)" stroke-width="1" d="M274.5,825.5C259.5,825.5,259.5,773.5,244.5,773.5L190.5,773.5"></path><path id="kity_path_656" fill="none" stroke="rgb(115, 161, 191)" stroke-width="1" d="M166.5,903.5C151.5,903.5,151.5,877.5,136.5,877.5L48.5,877.5"></path><path id="kity_path_657" fill="none" stroke="rgb(115, 161, 191)" stroke-width="1" d="M166.5,903.5C151.5,903.5,151.5,929.5,136.5,929.5L58.5,929.5"></path><path id="kity_path_658" fill="none" stroke="rgb(115, 161, 191)" stroke-width="1" d="M274.5,825.5C259.5,825.5,259.5,903.5,244.5,903.5L166.5,903.5"></path><path id="kity_path_659" fill="none" stroke="rgb(115, 161, 191)" stroke-width="1" d="M166.5,1007.5C151.5,1007.5,151.5,981.5,136.5,981.5L57.5,981.5"></path><path id="kity_path_660" fill="none" stroke="rgb(115, 161, 191)" stroke-width="1" d="M166.5,1007.5C151.5,1007.5,151.5,1033.5,136.5,1033.5L58.5,1033.5"></path><path id="kity_path_661" fill="none" stroke="rgb(115, 161, 191)" stroke-width="1" d="M274.5,825.5C259.5,825.5,259.5,1007.5,244.5,1007.5L166.5,1007.5"></path><path id="kity_path_662" fill="none" stroke="rgb(115, 161, 191)" stroke-width="1" d="M358.5,720.5C343.5,720.5,343.5,825.5,328.5,825.5L274.5,825.5"></path><path id="kity_path_663" fill="none" stroke="rgb(115, 161, 191)" stroke-width="1" d="M273.5,1163.5C258.5,1163.5,258.5,1085.5,243.5,1085.5L189.5,1085.5"></path><path id="kity_path_664" fill="none" stroke="rgb(115, 161, 191)" stroke-width="1" d="M273.5,1163.5C258.5,1163.5,258.5,1137.5,243.5,1137.5L189.5,1137.5"></path><path id="kity_path_665" fill="none" stroke="rgb(115, 161, 191)" stroke-width="1" d="M273.5,1163.5C258.5,1163.5,258.5,1189.5,243.5,1189.5L189.5,1189.5"></path><path id="kity_path_666" fill="none" stroke="rgb(115, 161, 191)" stroke-width="1" d="M273.5,1163.5C258.5,1163.5,258.5,1241.5,243.5,1241.5L129.5,1241.5"></path><path id="kity_path_667" fill="none" stroke="rgb(115, 161, 191)" stroke-width="1" d="M358.5,720.5C343.5,720.5,343.5,1163.5,328.5,1163.5L273.5,1163.5"></path><path id="kity_path_785" fill="none" stroke="rgb(115, 161, 191)" stroke-width="1" d="M546,720.5A107.5,137,0,0,0,653.5,857.5"></path><path id="kity_path_862" fill="none" stroke="rgb(115, 161, 191)" stroke-width="1" d="M766.5,857.5C781.5,857.5,781.5,715.5,796.5,715.5L876.5,715.5"></path><path id="kity_path_863" fill="none" stroke="rgb(115, 161, 191)" stroke-width="1" d="M766.5,857.5C781.5,857.5,781.5,767.5,796.5,767.5L873.5,767.5"></path><path id="kity_path_864" fill="none" stroke="rgb(115, 161, 191)" stroke-width="1" d="M766.5,857.5C781.5,857.5,781.5,819.5,796.5,819.5L873.5,819.5"></path><path id="kity_path_865" fill="none" stroke="rgb(115, 161, 191)" stroke-width="1" d="M766.5,857.5C781.5,857.5,781.5,871.5,796.5,871.5L899.5,871.5"></path><path id="kity_path_866" fill="none" stroke="rgb(115, 161, 191)" stroke-width="1" d="M766.5,857.5C781.5,857.5,781.5,923.5,796.5,923.5L888.5,923.5"></path><path id="kity_path_867" fill="none" stroke="rgb(115, 161, 191)" stroke-width="1" d="M766.5,857.5C781.5,857.5,781.5,975.5,796.5,975.5L959.5,975.5"></path><path id="kity_path_868" fill="none" stroke="rgb(115, 161, 191)" stroke-width="1" d="M766.5,857.5C781.5,857.5,781.5,1027.5,796.5,1027.5L846.5,1027.5"></path><path id="kity_path_869" fill="none" stroke="rgb(115, 161, 191)" stroke-width="1" d="M848.5,176.5C863.5,176.5,863.5,98.5,878.5,98.5L958.5,98.5"></path><path id="kity_path_870" fill="none" stroke="rgb(115, 161, 191)" stroke-width="1" d="M848.5,176.5C863.5,176.5,863.5,150.5,878.5,150.5L958.5,150.5"></path><path id="kity_path_871" fill="none" stroke="rgb(115, 161, 191)" stroke-width="1" d="M848.5,176.5C863.5,176.5,863.5,202.5,878.5,202.5L958.5,202.5"></path><path id="kity_path_872" fill="none" stroke="rgb(115, 161, 191)" stroke-width="1" d="M848.5,176.5C863.5,176.5,863.5,254.5,878.5,254.5L958.5,254.5"></path><path id="kity_path_873" fill="none" stroke="rgb(115, 161, 191)" stroke-width="1" d="M763.5,318.5C778.5,318.5,778.5,176.5,793.5,176.5L848.5,176.5"></path><path id="kity_path_874" fill="none" stroke="rgb(115, 161, 191)" stroke-width="1" d="M872.5,488.5C887.5,488.5,887.5,306.5,902.5,306.5L957.5,306.5"></path><path id="kity_path_875" fill="none" stroke="rgb(115, 161, 191)" stroke-width="1" d="M872.5,488.5C887.5,488.5,887.5,358.5,902.5,358.5L982.5,358.5"></path><path id="kity_path_876" fill="none" stroke="rgb(115, 161, 191)" stroke-width="1" d="M872.5,488.5C887.5,488.5,887.5,410.5,902.5,410.5L958.5,410.5"></path><path id="kity_path_877" fill="none" stroke="rgb(115, 161, 191)" stroke-width="1" d="M872.5,488.5C887.5,488.5,887.5,462.5,902.5,462.5L982.5,462.5"></path><path id="kity_path_878" fill="none" stroke="rgb(115, 161, 191)" stroke-width="1" d="M872.5,488.5C887.5,488.5,887.5,514.5,902.5,514.5L957.5,514.5"></path><path id="kity_path_879" fill="none" stroke="rgb(115, 161, 191)" stroke-width="1" d="M872.5,488.5C887.5,488.5,887.5,566.5,902.5,566.5L994.5,566.5"></path><path id="kity_path_880" fill="none" stroke="rgb(115, 161, 191)" stroke-width="1" d="M872.5,488.5C887.5,488.5,887.5,618.5,902.5,618.5L982.5,618.5"></path><path id="kity_path_881" fill="none" stroke="rgb(115, 161, 191)" stroke-width="1" d="M872.5,488.5C887.5,488.5,887.5,670.5,902.5,670.5L952.5,670.5"></path><path id="kity_path_882" fill="none" stroke="rgb(115, 161, 191)" stroke-width="1" d="M763.5,318.5C778.5,318.5,778.5,488.5,793.5,488.5L872.5,488.5"></path></g><g id="minder_node1"><path id="node_outline1" fill="rgb(115, 161, 191)" stroke="rgb(115, 161, 191)" d="M494.5,700.5h103a5,5,0,0,1,5,5v30a5,5,0,0,1,-5,5h-103a5,5,0,0,1,-5,-5v-30a5,5,0,0,1,5,-5z" stroke-width="3"></path><g id="node_text1" fill="white"><text id="kity_text_22" text-rendering="inherit" font-size="16" dy=".8em" y="710.0999999046326" x="513.5">原神玩法</text></g></g><g id="kity_g_14" display="none"><path id="kity_path_15" fill="rgba(0, 92, 153, 0.5)" stroke="none" d="M259.5,418.5h96v20h-96z"></path><path id="kity_path_16" fill="none" stroke="rgb(0, 76, 128)" d="M259.5,418.5L355.5,418.5" stroke-width="1"></path></g><g id="minder_node2" opacity="1"><g id="node_expander1" style="cursor: pointer;"><path id="kity_path_36" fill="white" stroke="gray" d="M357.5,720.5A6,6,0,1,1,345.5,720.5A6,6,0,1,1,357.5,720.5"></path><path id="kity_path_37" fill="none" stroke="gray" d="M347,720.5L356,720.5"></path></g><path id="node_outline2" fill="rgb(238, 243, 246)" stroke="rgb(115, 161, 191)" d="M361.5,707.5h90a3,3,0,0,1,3,3v20a3,3,0,0,1,-3,3h-90a3,3,0,0,1,-3,-3v-20a3,3,0,0,1,3,-3z" stroke-width="1"></path><g id="node_text2" fill="black"><text id="kity_text_33" text-rendering="inherit" font-size="14" dy=".8em" y="711.4000000953674" x="378.5">核心玩法</text></g></g><g id="minder_node4" opacity="1"><g id="node_expander3" style="cursor: pointer;"><path id="kity_path_52" fill="white" stroke="gray" d="M630.5,318.5A6,6,0,1,1,618.5,318.5A6,6,0,1,1,630.5,318.5"></path><path id="kity_path_53" fill="none" stroke="gray" d="M620,318.5L629,318.5"></path></g><path id="node_outline4" fill="rgb(238, 243, 246)" stroke="rgb(57, 80, 96)" d="M634.5,305.5h126a3,3,0,0,1,3,3v20a3,3,0,0,1,-3,3h-126a3,3,0,0,1,-3,-3v-20a3,3,0,0,1,3,-3z" stroke-width="3"></path><g id="node_text4" fill="black"><text id="kity_text_49" text-rendering="inherit" font-size="14" dy=".8em" y="309.40000009536743" x="651.5">特殊/活动玩法</text></g></g><g id="minder_node11"><g id="node_expander10" style="cursor: pointer;" display="none"><path id="kity_path_108" fill="white" stroke="gray" d="M138.5,31.5A6,6,0,1,1,126.5,31.5A6,6,0,1,1,138.5,31.5"></path><path id="kity_path_109" fill="none" stroke="gray"></path></g><path id="node_outline11" fill="none" stroke="none" d="M27.5,20.5h94a5,5,0,0,1,5,5v12a5,5,0,0,1,-5,5h-94a5,5,0,0,1,-5,-5v-12a5,5,0,0,1,5,-5z" stroke-width="3"></path><g id="node_text11" fill="black"><text id="kity_text_105" text-rendering="inherit" font-size="12" dy=".8em" y="23.700000047683716" x="32.5">走、跑、跳、坐</text></g></g><g id="minder_node12"><g id="node_expander11" style="cursor: pointer;" display="none"><path id="kity_path_116" fill="white" stroke="gray" d="M138.5,83.5A6,6,0,1,1,126.5,83.5A6,6,0,1,1,138.5,83.5"></path><path id="kity_path_117" fill="none" stroke="gray"></path></g><path id="node_outline12" fill="none" stroke="none" d="M86.5,72.5h35a5,5,0,0,1,5,5v12a5,5,0,0,1,-5,5h-35a5,5,0,0,1,-5,-5v-12a5,5,0,0,1,5,-5z" stroke-width="3"></path><g id="node_text12" fill="black"><text id="kity_text_113" text-rendering="inherit" font-size="12" dy=".8em" y="75.70000004768372" x="91.5">游泳</text></g></g><g id="minder_node13"><g id="node_expander12" style="cursor: pointer;" display="none"><path id="kity_path_124" fill="white" stroke="gray" d="M138.5,135.5A6,6,0,1,1,126.5,135.5A6,6,0,1,1,138.5,135.5"></path><path id="kity_path_125" fill="none" stroke="gray"></path></g><path id="node_outline13" fill="none" stroke="none" d="M87.5,124.5h34a5,5,0,0,1,5,5v12a5,5,0,0,1,-5,5h-34a5,5,0,0,1,-5,-5v-12a5,5,0,0,1,5,-5z" stroke-width="3"></path><g id="node_text13" fill="black"><text id="kity_text_121" text-rendering="inherit" font-size="12" dy=".8em" y="127.70000004768372" x="92.5">滑翔</text></g></g><g id="minder_node14"><g id="node_expander13" style="cursor: pointer;" display="none"><path id="kity_path_132" fill="white" stroke="gray" d="M138.5,187.5A6,6,0,1,1,126.5,187.5A6,6,0,1,1,138.5,187.5"></path><path id="kity_path_133" fill="none" stroke="gray"></path></g><path id="node_outline14" fill="none" stroke="none" d="M86.5,176.5h35a5,5,0,0,1,5,5v12a5,5,0,0,1,-5,5h-35a5,5,0,0,1,-5,-5v-12a5,5,0,0,1,5,-5z" stroke-width="3"></path><g id="node_text14" fill="black"><text id="kity_text_129" text-rendering="inherit" font-size="12" dy=".8em" y="179.70000004768372" x="91.5">攀爬</text></g></g><g id="minder_node9"><g id="node_expander8" style="cursor: pointer;"><path id="kity_path_92" fill="white" stroke="gray" d="M246.5,109.5A6,6,0,1,1,234.5,109.5A6,6,0,1,1,246.5,109.5"></path><path id="kity_path_93" fill="none" stroke="gray" d="M236,109.5L245,109.5"></path></g><path id="node_outline9" fill="none" stroke="none" d="M171.5,98.5h58a5,5,0,0,1,5,5v12a5,5,0,0,1,-5,5h-58a5,5,0,0,1,-5,-5v-12a5,5,0,0,1,5,-5z" stroke-width="3"></path><g id="node_text9" fill="black"><text id="kity_text_89" text-rendering="inherit" font-size="12" dy=".8em" y="101.70000004768372" x="176.5">角色行为</text></g></g><g id="minder_node16"><g id="node_expander15" style="cursor: pointer;" display="none"><path id="kity_path_148" fill="white" stroke="gray" d="M125.5,239.5A6,6,0,1,1,113.5,239.5A6,6,0,1,1,125.5,239.5"></path><path id="kity_path_149" fill="none" stroke="gray"></path></g><path id="node_outline16" fill="none" stroke="none" d="M26.5,228.5h82a5,5,0,0,1,5,5v12a5,5,0,0,1,-5,5h-82a5,5,0,0,1,-5,-5v-12a5,5,0,0,1,5,-5z" stroke-width="3"></path><g id="node_text16" fill="black"><text id="kity_text_145" text-rendering="inherit" font-size="12" dy=".8em" y="231.70000004768372" x="31.5">一次性收集物</text></g></g><g id="minder_node17"><g id="node_expander16" style="cursor: pointer;" display="none"><path id="kity_path_156" fill="white" stroke="gray" d="M125.5,291.5A6,6,0,1,1,113.5,291.5A6,6,0,1,1,125.5,291.5"></path><path id="kity_path_157" fill="none" stroke="gray"></path></g><path id="node_outline17" fill="none" stroke="none" d="M62.5,280.5h46a5,5,0,0,1,5,5v12a5,5,0,0,1,-5,5h-46a5,5,0,0,1,-5,-5v-12a5,5,0,0,1,5,-5z" stroke-width="3"></path><g id="node_text17" fill="black"><text id="kity_text_153" text-rendering="inherit" font-size="12" dy=".8em" y="283.7000000476837" x="67.5">捡垃圾</text></g></g><g id="minder_node18"><g id="node_expander17" style="cursor: pointer;" display="none"><path id="kity_path_164" fill="white" stroke="gray" d="M125.5,343.5A6,6,0,1,1,113.5,343.5A6,6,0,1,1,125.5,343.5"></path><path id="kity_path_165" fill="none" stroke="gray"></path></g><path id="node_outline18" fill="none" stroke="none" d="M25.5,332.5h83a5,5,0,0,1,5,5v12a5,5,0,0,1,-5,5h-83a5,5,0,0,1,-5,-5v-12a5,5,0,0,1,5,-5z" stroke-width="3"></path><g id="node_text18" fill="black"><text id="kity_text_161" text-rendering="inherit" font-size="12" dy=".8em" y="335.7000000476837" x="30.5">击杀怪物掉落</text></g></g><g id="minder_node10"><g id="node_expander9" style="cursor: pointer;"><path id="kity_path_100" fill="white" stroke="gray" d="M246.5,291.5A6,6,0,1,1,234.5,291.5A6,6,0,1,1,246.5,291.5"></path><path id="kity_path_101" fill="none" stroke="gray" d="M236,291.5L245,291.5"></path></g><path id="node_outline10" fill="none" stroke="none" d="M158.5,280.5h71a5,5,0,0,1,5,5v12a5,5,0,0,1,-5,5h-71a5,5,0,0,1,-5,-5v-12a5,5,0,0,1,5,-5z" stroke-width="3"></path><g id="node_text10" fill="black"><text id="kity_text_97" text-rendering="inherit" font-size="12" dy=".8em" y="283.7000000476837" x="163.5">采集与收集</text></g></g><g id="minder_node19"><g id="node_expander18" style="cursor: pointer;" display="none"><path id="kity_path_172" fill="white" stroke="gray" d="M138.5,395.5A6,6,0,1,1,126.5,395.5A6,6,0,1,1,138.5,395.5"></path><path id="kity_path_173" fill="none" stroke="gray"></path></g><path id="node_outline19" fill="none" stroke="none" d="M75.5,384.5h46a5,5,0,0,1,5,5v12a5,5,0,0,1,-5,5h-46a5,5,0,0,1,-5,-5v-12a5,5,0,0,1,5,-5z" stroke-width="3"></path><g id="node_text19" fill="black"><text id="kity_text_169" text-rendering="inherit" font-size="12" dy=".8em" y="387.7000000476837" x="80.5">元素力</text></g></g><g id="minder_node20"><g id="node_expander19" style="cursor: pointer;" display="none"><path id="kity_path_180" fill="white" stroke="gray" d="M138.5,447.5A6,6,0,1,1,126.5,447.5A6,6,0,1,1,138.5,447.5"></path><path id="kity_path_181" fill="none" stroke="gray"></path></g><path id="node_outline20" fill="none" stroke="none" d="M63.5,436.5h58a5,5,0,0,1,5,5v12a5,5,0,0,1,-5,5h-58a5,5,0,0,1,-5,-5v-12a5,5,0,0,1,5,-5z" stroke-width="3"></path><g id="node_text20" fill="black"><text id="kity_text_177" text-rendering="inherit" font-size="12" dy=".8em" y="439.7000000476837" x="68.5">实体交互</text></g></g><g id="minder_node21"><g id="node_expander20" style="cursor: pointer;" display="none"><path id="kity_path_188" fill="white" stroke="gray" d="M138.5,499.5A6,6,0,1,1,126.5,499.5A6,6,0,1,1,138.5,499.5"></path><path id="kity_path_189" fill="none" stroke="gray"></path></g><path id="node_outline21" fill="none" stroke="none" d="M27.5,488.5h94a5,5,0,0,1,5,5v12a5,5,0,0,1,-5,5h-94a5,5,0,0,1,-5,-5v-12a5,5,0,0,1,5,-5z" stroke-width="3"></path><g id="node_text21" fill="black"><text id="kity_text_185" text-rendering="inherit" font-size="12" dy=".8em" y="491.7000000476837" x="32.5">时间、天气系统</text></g></g><g id="minder_node22"><g id="node_expander21" style="cursor: pointer;" display="none"><path id="kity_path_196" fill="white" stroke="gray" d="M138.5,551.5A6,6,0,1,1,126.5,551.5A6,6,0,1,1,138.5,551.5"></path><path id="kity_path_197" fill="none" stroke="gray"></path></g><path id="node_outline22" fill="none" stroke="none" d="M63.5,540.5h58a5,5,0,0,1,5,5v12a5,5,0,0,1,-5,5h-58a5,5,0,0,1,-5,-5v-12a5,5,0,0,1,5,-5z" stroke-width="3"></path><g id="node_text22" fill="black"><text id="kity_text_193" text-rendering="inherit" font-size="12" dy=".8em" y="543.7000000476837" x="68.5">环境伤害</text></g></g><g id="minder_node15"><g id="node_expander14" style="cursor: pointer;"><path id="kity_path_140" fill="white" stroke="gray" d="M246.5,473.5A6,6,0,1,1,234.5,473.5A6,6,0,1,1,246.5,473.5"></path><path id="kity_path_141" fill="none" stroke="gray" d="M236,473.5L245,473.5"></path></g><path id="node_outline15" fill="none" stroke="none" d="M171.5,462.5h58a5,5,0,0,1,5,5v12a5,5,0,0,1,-5,5h-58a5,5,0,0,1,-5,-5v-12a5,5,0,0,1,5,-5z" stroke-width="3"></path><g id="node_text15" fill="black"><text id="kity_text_137" text-rendering="inherit" font-size="12" dy=".8em" y="465.7000000476837" x="176.5">环境交互</text></g></g><g id="minder_node5"><g id="node_expander4" style="cursor: pointer;"><path id="kity_path_60" fill="white" stroke="gray" d="M330.5,291.5A6,6,0,1,1,318.5,291.5A6,6,0,1,1,330.5,291.5"></path><path id="kity_path_61" fill="none" stroke="gray" d="M320,291.5L329,291.5"></path></g><path id="node_outline5" fill="none" stroke="none" d="M279.5,280.5h34a5,5,0,0,1,5,5v12a5,5,0,0,1,-5,5h-34a5,5,0,0,1,-5,-5v-12a5,5,0,0,1,5,-5z" stroke-width="3"></path><g id="node_text5" fill="black"><text id="kity_text_57" text-rendering="inherit" font-size="12" dy=".8em" y="283.7000000476837" x="284.5">探索</text></g></g><g id="minder_node27"><g id="node_expander26" style="cursor: pointer;" display="none"><path id="kity_path_236" fill="white" stroke="gray" d="M162.5,603.5A6,6,0,1,1,150.5,603.5A6,6,0,1,1,162.5,603.5"></path><path id="kity_path_237" fill="none" stroke="gray"></path></g><path id="node_outline27" fill="none" stroke="none" d="M87.5,592.5h58a5,5,0,0,1,5,5v12a5,5,0,0,1,-5,5h-58a5,5,0,0,1,-5,-5v-12a5,5,0,0,1,5,-5z" stroke-width="3"></path><g id="node_text27" fill="black"><text id="kity_text_233" text-rendering="inherit" font-size="12" dy=".8em" y="595.7000000476837" x="92.5">基础攻击</text></g></g><g id="minder_node28"><g id="node_expander27" style="cursor: pointer;" display="none"><path id="kity_path_244" fill="white" stroke="gray" d="M162.5,655.5A6,6,0,1,1,150.5,655.5A6,6,0,1,1,162.5,655.5"></path><path id="kity_path_245" fill="none" stroke="gray"></path></g><path id="node_outline28" fill="none" stroke="none" d="M87.5,644.5h58a5,5,0,0,1,5,5v12a5,5,0,0,1,-5,5h-58a5,5,0,0,1,-5,-5v-12a5,5,0,0,1,5,-5z" stroke-width="3"></path><g id="node_text28" fill="black"><text id="kity_text_241" text-rendering="inherit" font-size="12" dy=".8em" y="647.7000000476837" x="92.5">技能攻击</text></g></g><g id="minder_node23"><g id="node_expander22" style="cursor: pointer;"><path id="kity_path_204" fill="white" stroke="gray" d="M246.5,629.5A6,6,0,1,1,234.5,629.5A6,6,0,1,1,246.5,629.5"></path><path id="kity_path_205" fill="none" stroke="gray" d="M236,629.5L245,629.5"></path></g><path id="node_outline23" fill="none" stroke="none" d="M195.5,618.5h34a5,5,0,0,1,5,5v12a5,5,0,0,1,-5,5h-34a5,5,0,0,1,-5,-5v-12a5,5,0,0,1,5,-5z" stroke-width="3"></path><g id="node_text23" fill="black"><text id="kity_text_201" text-rendering="inherit" font-size="12" dy=".8em" y="621.7000000476837" x="200.5">进攻</text></g></g><g id="minder_node29"><g id="node_expander28" style="cursor: pointer;" display="none"><path id="kity_path_252" fill="white" stroke="gray" d="M162.5,707.5A6,6,0,1,1,150.5,707.5A6,6,0,1,1,162.5,707.5"></path><path id="kity_path_253" fill="none" stroke="gray"></path></g><path id="node_outline29" fill="none" stroke="none" d="M111.5,696.5h34a5,5,0,0,1,5,5v12a5,5,0,0,1,-5,5h-34a5,5,0,0,1,-5,-5v-12a5,5,0,0,1,5,-5z" stroke-width="3"></path><g id="node_text29" fill="black"><text id="kity_text_249" text-rendering="inherit" font-size="12" dy=".8em" y="699.7000000476837" x="116.5">闪避</text></g></g><g id="minder_node30"><g id="node_expander29" style="cursor: pointer;" display="none"><path id="kity_path_260" fill="white" stroke="gray" d="M162.5,759.5A6,6,0,1,1,150.5,759.5A6,6,0,1,1,162.5,759.5"></path><path id="kity_path_261" fill="none" stroke="gray"></path></g><path id="node_outline30" fill="none" stroke="none" d="M75.5,748.5h70a5,5,0,0,1,5,5v12a5,5,0,0,1,-5,5h-70a5,5,0,0,1,-5,-5v-12a5,5,0,0,1,5,-5z" stroke-width="3"></path><g id="node_text30" fill="black"><text id="kity_text_257" text-rendering="inherit" font-size="12" dy=".8em" y="751.7000000476837" x="80.5">护盾、回复</text></g></g><g id="minder_node31"><g id="node_expander30" style="cursor: pointer;" display="none"><path id="kity_path_268" fill="white" stroke="gray" d="M162.5,811.5A6,6,0,1,1,150.5,811.5A6,6,0,1,1,162.5,811.5"></path><path id="kity_path_269" fill="none" stroke="gray"></path></g><path id="node_outline31" fill="none" stroke="none" d="M99.5,800.5h46a5,5,0,0,1,5,5v12a5,5,0,0,1,-5,5h-46a5,5,0,0,1,-5,-5v-12a5,5,0,0,1,5,-5z" stroke-width="3"></path><g id="node_text31" fill="black"><text id="kity_text_265" text-rendering="inherit" font-size="12" dy=".8em" y="803.7000000476837" x="104.5">无敌帧</text></g></g><g id="minder_node24"><g id="node_expander23" style="cursor: pointer;"><path id="kity_path_212" fill="white" stroke="gray" d="M246.5,759.5A6,6,0,1,1,234.5,759.5A6,6,0,1,1,246.5,759.5"></path><path id="kity_path_213" fill="none" stroke="gray" d="M236,759.5L245,759.5"></path></g><path id="node_outline24" fill="none" stroke="none" d="M195.5,748.5h34a5,5,0,0,1,5,5v12a5,5,0,0,1,-5,5h-34a5,5,0,0,1,-5,-5v-12a5,5,0,0,1,5,-5z" stroke-width="3"></path><g id="node_text24" fill="black"><text id="kity_text_209" text-rendering="inherit" font-size="12" dy=".8em" y="751.7000000476837" x="200.5">防御</text></g></g><g id="minder_node32"><g id="node_expander31" style="cursor: pointer;" display="none"><path id="kity_path_276" fill="white" stroke="gray" d="M138.5,863.5A6,6,0,1,1,126.5,863.5A6,6,0,1,1,138.5,863.5"></path><path id="kity_path_277" fill="none" stroke="gray"></path></g><path id="node_outline32" fill="none" stroke="none" d="M53.5,852.5h68a5,5,0,0,1,5,5v12a5,5,0,0,1,-5,5h-68a5,5,0,0,1,-5,-5v-12a5,5,0,0,1,5,-5z" stroke-width="3"></path><g id="node_text32" fill="black"><text id="kity_text_273" text-rendering="inherit" font-size="12" dy=".8em" y="855.7000000476837" x="58.5">打断&amp;压制</text></g></g><g id="minder_node33"><g id="node_expander32" style="cursor: pointer;" display="none"><path id="kity_path_284" fill="white" stroke="gray" d="M138.5,915.5A6,6,0,1,1,126.5,915.5A6,6,0,1,1,138.5,915.5"></path><path id="kity_path_285" fill="none" stroke="gray"></path></g><path id="node_outline33" fill="none" stroke="none" d="M63.5,904.5h58a5,5,0,0,1,5,5v12a5,5,0,0,1,-5,5h-58a5,5,0,0,1,-5,-5v-12a5,5,0,0,1,5,-5z" stroke-width="3"></path><g id="node_text33" fill="black"><text id="kity_text_281" text-rendering="inherit" font-size="12" dy=".8em" y="907.7000000476837" x="68.5">弱点打击</text></g></g><g id="minder_node25"><g id="node_expander24" style="cursor: pointer;"><path id="kity_path_220" fill="white" stroke="gray" d="M246.5,889.5A6,6,0,1,1,234.5,889.5A6,6,0,1,1,246.5,889.5"></path><path id="kity_path_221" fill="none" stroke="gray" d="M236,889.5L245,889.5"></path></g><path id="node_outline25" fill="none" stroke="none" d="M171.5,878.5h58a5,5,0,0,1,5,5v12a5,5,0,0,1,-5,5h-58a5,5,0,0,1,-5,-5v-12a5,5,0,0,1,5,-5z" stroke-width="3"></path><g id="node_text25" fill="black"><text id="kity_text_217" text-rendering="inherit" font-size="12" dy=".8em" y="881.7000000476837" x="176.5">战斗技巧</text></g></g><g id="minder_node36"><g id="node_expander35" style="cursor: pointer;" display="none"><path id="kity_path_308" fill="white" stroke="gray" d="M138.5,967.5A6,6,0,1,1,126.5,967.5A6,6,0,1,1,138.5,967.5"></path><path id="kity_path_309" fill="none" stroke="gray"></path></g><path id="node_outline36" fill="none" stroke="none" d="M62.5,956.5h59a5,5,0,0,1,5,5v12a5,5,0,0,1,-5,5h-59a5,5,0,0,1,-5,-5v-12a5,5,0,0,1,5,-5z" stroke-width="3"></path><g id="node_text36" fill="black"><text id="kity_text_305" text-rendering="inherit" font-size="12" dy=".8em" y="959.7000000476837" x="67.5">伤害加成</text></g></g><g id="minder_node34" opacity="1"><g id="node_expander33" style="cursor: pointer;" display="none"><path id="kity_path_292" fill="white" stroke="gray" d="M138.5,1019.5A6,6,0,1,1,126.5,1019.5A6,6,0,1,1,138.5,1019.5"></path><path id="kity_path_293" fill="none" stroke="gray" d="M128,1019.5L137,1019.5"></path></g><path id="node_outline34" fill="none" stroke="none" d="M63.5,1008.5h58a5,5,0,0,1,5,5v12a5,5,0,0,1,-5,5h-58a5,5,0,0,1,-5,-5v-12a5,5,0,0,1,5,-5z" stroke-width="3"></path><g id="node_text34" fill="black"><text id="kity_text_289" text-rendering="inherit" font-size="12" dy=".8em" y="1011.7000000476837" x="68.5">元素克制</text></g></g><g id="minder_node26"><g id="node_expander25" style="cursor: pointer;"><path id="kity_path_228" fill="white" stroke="gray" d="M246.5,993.5A6,6,0,1,1,234.5,993.5A6,6,0,1,1,246.5,993.5"></path><path id="kity_path_229" fill="none" stroke="gray" d="M236,993.5L245,993.5"></path></g><path id="node_outline26" fill="none" stroke="none" d="M171.5,982.5h58a5,5,0,0,1,5,5v12a5,5,0,0,1,-5,5h-58a5,5,0,0,1,-5,-5v-12a5,5,0,0,1,5,-5z" stroke-width="3"></path><g id="node_text26" fill="black"><text id="kity_text_225" text-rendering="inherit" font-size="12" dy=".8em" y="985.7000000476837" x="176.5">元素反应</text></g></g><g id="minder_node6"><g id="node_expander5" style="cursor: pointer;"><path id="kity_path_68" fill="white" stroke="gray" d="M330.5,811.5A6,6,0,1,1,318.5,811.5A6,6,0,1,1,330.5,811.5"></path><path id="kity_path_69" fill="none" stroke="gray" d="M320,811.5L329,811.5"></path></g><path id="node_outline6" fill="none" stroke="none" d="M279.5,800.5h34a5,5,0,0,1,5,5v12a5,5,0,0,1,-5,5h-34a5,5,0,0,1,-5,-5v-12a5,5,0,0,1,5,-5z" stroke-width="3"></path><g id="node_text6" fill="black"><text id="kity_text_65" text-rendering="inherit" font-size="12" dy=".8em" y="803.7000000476837" x="284.5">战斗</text></g></g><g id="minder_node37"><g id="node_expander36" style="cursor: pointer;" display="none"><path id="kity_path_316" fill="white" stroke="gray" d="M245.5,1071.5A6,6,0,1,1,233.5,1071.5A6,6,0,1,1,245.5,1071.5"></path><path id="kity_path_317" fill="none" stroke="gray"></path></g><path id="node_outline37" fill="none" stroke="none" d="M194.5,1060.5h34a5,5,0,0,1,5,5v12a5,5,0,0,1,-5,5h-34a5,5,0,0,1,-5,-5v-12a5,5,0,0,1,5,-5z" stroke-width="3"></path><g id="node_text37" fill="black"><text id="kity_text_313" text-rendering="inherit" font-size="12" dy=".8em" y="1063.7000000476837" x="199.5">角色</text></g></g><g id="minder_node38"><g id="node_expander37" style="cursor: pointer;" display="none"><path id="kity_path_324" fill="white" stroke="gray" d="M245.5,1123.5A6,6,0,1,1,233.5,1123.5A6,6,0,1,1,245.5,1123.5"></path><path id="kity_path_325" fill="none" stroke="gray"></path></g><path id="node_outline38" fill="none" stroke="none" d="M194.5,1112.5h34a5,5,0,0,1,5,5v12a5,5,0,0,1,-5,5h-34a5,5,0,0,1,-5,-5v-12a5,5,0,0,1,5,-5z" stroke-width="3"></path><g id="node_text38" fill="black"><text id="kity_text_321" text-rendering="inherit" font-size="12" dy=".8em" y="1115.7000000476837" x="199.5">武器</text></g></g><g id="minder_node39"><g id="node_expander38" style="cursor: pointer;" display="none"><path id="kity_path_332" fill="white" stroke="gray" d="M245.5,1175.5A6,6,0,1,1,233.5,1175.5A6,6,0,1,1,245.5,1175.5"></path><path id="kity_path_333" fill="none" stroke="gray"></path></g><path id="node_outline39" fill="none" stroke="none" d="M194.5,1164.5h34a5,5,0,0,1,5,5v12a5,5,0,0,1,-5,5h-34a5,5,0,0,1,-5,-5v-12a5,5,0,0,1,5,-5z" stroke-width="3"></path><g id="node_text39" fill="black"><text id="kity_text_329" text-rendering="inherit" font-size="12" dy=".8em" y="1167.7000000476837" x="199.5">技能</text></g></g><g id="minder_node40"><g id="node_expander39" style="cursor: pointer;" display="none"><path id="kity_path_340" fill="white" stroke="gray" d="M245.5,1227.5A6,6,0,1,1,233.5,1227.5A6,6,0,1,1,245.5,1227.5"></path><path id="kity_path_341" fill="none" stroke="gray"></path></g><path id="node_outline40" fill="none" stroke="none" d="M134.5,1216.5h94a5,5,0,0,1,5,5v12a5,5,0,0,1,-5,5h-94a5,5,0,0,1,-5,-5v-12a5,5,0,0,1,5,-5z" stroke-width="3"></path><g id="node_text40" fill="black"><text id="kity_text_337" text-rendering="inherit" font-size="12" dy=".8em" y="1219.7000000476837" x="139.5">装备（圣遗物）</text></g></g><g id="minder_node7"><g id="node_expander6" style="cursor: pointer;"><path id="kity_path_76" fill="white" stroke="gray" d="M330.5,1149.5A6,6,0,1,1,318.5,1149.5A6,6,0,1,1,330.5,1149.5"></path><path id="kity_path_77" fill="none" stroke="gray" d="M320,1149.5L329,1149.5"></path></g><path id="node_outline7" fill="none" stroke="none" d="M278.5,1138.5h35a5,5,0,0,1,5,5v12a5,5,0,0,1,-5,5h-35a5,5,0,0,1,-5,-5v-12a5,5,0,0,1,5,-5z" stroke-width="3"></path><g id="node_text7" fill="black"><text id="kity_text_73" text-rendering="inherit" font-size="12" dy=".8em" y="1141.7000000476837" x="283.5">养成</text></g></g><g id="minder_node73" opacity="1"><g id="node_expander79" style="cursor: pointer;"><path id="kity_path_846" fill="white" stroke="gray" d="M779.5,857.5A6,6,0,1,1,767.5,857.5A6,6,0,1,1,779.5,857.5"></path><path id="kity_path_847" fill="none" stroke="gray" d="M769,857.5L778,857.5"></path></g><path id="node_outline80" fill="rgb(238, 243, 246)" stroke="rgb(115, 161, 191)" d="M658.5,844.5h105a3,3,0,0,1,3,3v20a3,3,0,0,1,-3,3h-105a3,3,0,0,1,-3,-3v-20a3,3,0,0,1,3,-3z" stroke-width="1"></path><g id="node_text80" fill="black"><text id="kity_text_815" text-rendering="inherit" font-size="14" dy=".8em" y="848.4000000953674" x="675.5">非官方玩法</text></g></g><g id="kity_g_12" display="none"><path id="kity_path_13" fill="none" stroke="rgb(66, 94, 112)" d="M701.5,535.5h60a5,5,0,0,1,5,5v12a5,5,0,0,1,-5,5h-60a5,5,0,0,1,-5,-5v-12a5,5,0,0,1,5,-5z" stroke-width="5"></path></g><g id="minder_node74"><g id="node_expander72" style="cursor: pointer;" display="none"><path id="kity_path_825" fill="white" stroke="gray" d="M806.5,701.5A6,6,0,1,1,794.5,701.5A6,6,0,1,1,806.5,701.5"></path><path id="kity_path_826" fill="none" stroke="gray"></path></g><path id="node_outline73" fill="none" stroke="none" d="M811.5,690.5h60a5,5,0,0,1,5,5v12a5,5,0,0,1,-5,5h-60a5,5,0,0,1,-5,-5v-12a5,5,0,0,1,5,-5z"></path><g id="node_text73" fill="black"><text id="kity_text_801" text-rendering="inherit" font-size="12" dy=".8em" y="693.7000000476837" x="816.5">玩家攻略</text></g></g><g id="minder_node75"><g id="node_expander73" style="cursor: pointer;" display="none"><path id="kity_path_828" fill="white" stroke="gray" d="M806.5,753.5A6,6,0,1,1,794.5,753.5A6,6,0,1,1,806.5,753.5"></path><path id="kity_path_829" fill="none" stroke="gray"></path></g><path id="node_outline74" fill="none" stroke="none" d="M811.5,742.5h57a5,5,0,0,1,5,5v12a5,5,0,0,1,-5,5h-57a5,5,0,0,1,-5,-5v-12a5,5,0,0,1,5,-5z"></path><g id="node_text74" fill="black"><text id="kity_text_803" text-rendering="inherit" font-size="12" dy=".8em" y="745.7000000476837" x="816.5">线下pvp</text></g></g><g id="minder_node76"><g id="node_expander74" style="cursor: pointer;" display="none"><path id="kity_path_831" fill="white" stroke="gray" d="M806.5,805.5A6,6,0,1,1,794.5,805.5A6,6,0,1,1,806.5,805.5"></path><path id="kity_path_832" fill="none" stroke="gray"></path></g><path id="node_outline75" fill="none" stroke="none" d="M811.5,794.5h57a5,5,0,0,1,5,5v12a5,5,0,0,1,-5,5h-57a5,5,0,0,1,-5,-5v-12a5,5,0,0,1,5,-5z"></path><g id="node_text75" fill="black"><text id="kity_text_805" text-rendering="inherit" font-size="12" dy=".8em" y="797.7000000476837" x="816.5">人为pvp</text></g></g><g id="minder_node77"><g id="node_expander75" style="cursor: pointer;" display="none"><path id="kity_path_834" fill="white" stroke="gray" d="M806.5,857.5A6,6,0,1,1,794.5,857.5A6,6,0,1,1,806.5,857.5"></path><path id="kity_path_835" fill="none" stroke="gray"></path></g><path id="node_outline76" fill="none" stroke="none" d="M811.5,846.5h83a5,5,0,0,1,5,5v12a5,5,0,0,1,-5,5h-83a5,5,0,0,1,-5,-5v-12a5,5,0,0,1,5,-5z"></path><g id="node_text76" fill="black"><text id="kity_text_807" text-rendering="inherit" font-size="12" dy=".8em" y="849.7000000476837" x="816.5">捉迷藏、追逃</text></g></g><g id="minder_node78"><g id="node_expander76" style="cursor: pointer;" display="none"><path id="kity_path_837" fill="white" stroke="gray" d="M806.5,909.5A6,6,0,1,1,794.5,909.5A6,6,0,1,1,806.5,909.5"></path><path id="kity_path_838" fill="none" stroke="gray"></path></g><path id="node_outline77" fill="none" stroke="none" d="M811.5,898.5h72a5,5,0,0,1,5,5v12a5,5,0,0,1,-5,5h-72a5,5,0,0,1,-5,-5v-12a5,5,0,0,1,5,-5z"></path><g id="node_text77" fill="black"><text id="kity_text_809" text-rendering="inherit" font-size="12" dy=".8em" y="901.7000000476837" x="816.5">创造物整活</text></g></g><g id="minder_node79"><g id="node_expander77" style="cursor: pointer;" display="none"><path id="kity_path_840" fill="white" stroke="gray" d="M806.5,961.5A6,6,0,1,1,794.5,961.5A6,6,0,1,1,806.5,961.5"></path><path id="kity_path_841" fill="none" stroke="gray"></path></g><path id="node_outline78" fill="none" stroke="none" d="M811.5,950.5h143a5,5,0,0,1,5,5v12a5,5,0,0,1,-5,5h-143a5,5,0,0,1,-5,-5v-12a5,5,0,0,1,5,-5z"></path><g id="node_text78" fill="black"><text id="kity_text_811" text-rendering="inherit" font-size="12" dy=".8em" y="953.7000000476837" x="816.5">特殊机制开发（登龙剑）</text></g></g><g id="minder_node80"><g id="node_expander78" style="cursor: pointer;" display="none"><path id="kity_path_843" fill="white" stroke="gray" d="M806.5,1013.5A6,6,0,1,1,794.5,1013.5A6,6,0,1,1,806.5,1013.5"></path><path id="kity_path_844" fill="none" stroke="gray"></path></g><path id="node_outline79" fill="none" stroke="none" d="M811.5,1002.5h30a5,5,0,0,1,5,5v12a5,5,0,0,1,-5,5h-30a5,5,0,0,1,-5,-5v-12a5,5,0,0,1,5,-5z"></path><g id="node_text79" fill="black"><text id="kity_text_813" text-rendering="inherit" font-size="12" dy=".8em" y="1005.7000000476837" x="816.5">……</text></g></g><g id="minder_node69"><g id="node_expander68" style="cursor: pointer;" display="none"><path id="kity_path_758" fill="white" stroke="gray" d="M888.5,84.5A6,6,0,1,1,876.5,84.5A6,6,0,1,1,888.5,84.5"></path><path id="kity_path_759" fill="none" stroke="gray"></path></g><path id="node_outline69" fill="none" stroke="none" d="M893.5,73.5h60a5,5,0,0,1,5,5v12a5,5,0,0,1,-5,5h-60a5,5,0,0,1,-5,-5v-12a5,5,0,0,1,5,-5z" stroke-width="3"></path><g id="node_text69" fill="black"><text id="kity_text_755" text-rendering="inherit" font-size="12" dy=".8em" y="76.70000004768372" x="898.5">联机系统</text></g></g><g id="minder_node70"><g id="node_expander69" style="cursor: pointer;" display="none"><path id="kity_path_766" fill="white" stroke="gray" d="M888.5,136.5A6,6,0,1,1,876.5,136.5A6,6,0,1,1,888.5,136.5"></path><path id="kity_path_767" fill="none" stroke="gray"></path></g><path id="node_outline70" fill="none" stroke="none" d="M893.5,125.5h60a5,5,0,0,1,5,5v12a5,5,0,0,1,-5,5h-60a5,5,0,0,1,-5,-5v-12a5,5,0,0,1,5,-5z" stroke-width="3"></path><g id="node_text70" fill="black"><text id="kity_text_763" text-rendering="inherit" font-size="12" dy=".8em" y="128.70000004768372" x="898.5">料理系统</text></g></g><g id="minder_node71"><g id="node_expander70" style="cursor: pointer;" display="none"><path id="kity_path_774" fill="white" stroke="gray" d="M888.5,188.5A6,6,0,1,1,876.5,188.5A6,6,0,1,1,888.5,188.5"></path><path id="kity_path_775" fill="none" stroke="gray"></path></g><path id="node_outline71" fill="none" stroke="none" d="M893.5,177.5h60a5,5,0,0,1,5,5v12a5,5,0,0,1,-5,5h-60a5,5,0,0,1,-5,-5v-12a5,5,0,0,1,5,-5z" stroke-width="3"></path><g id="node_text71" fill="black"><text id="kity_text_771" text-rendering="inherit" font-size="12" dy=".8em" y="180.70000004768372" x="898.5">成就系统</text></g></g><g id="minder_node72"><g id="node_expander71" style="cursor: pointer;" display="none"><path id="kity_path_782" fill="white" stroke="gray" d="M888.5,240.5A6,6,0,1,1,876.5,240.5A6,6,0,1,1,888.5,240.5"></path><path id="kity_path_783" fill="none" stroke="gray"></path></g><path id="node_outline72" fill="none" stroke="none" d="M893.5,229.5h60a5,5,0,0,1,5,5v12a5,5,0,0,1,-5,5h-60a5,5,0,0,1,-5,-5v-12a5,5,0,0,1,5,-5z" stroke-width="3"></path><g id="node_text72" fill="black"><text id="kity_text_779" text-rendering="inherit" font-size="12" dy=".8em" y="232.70000004768372" x="898.5">拍照系统</text></g></g><g id="minder_node55"><g id="node_expander54" style="cursor: pointer;"><path id="kity_path_474" fill="white" stroke="gray" d="M803.5,162.5A6,6,0,1,1,791.5,162.5A6,6,0,1,1,803.5,162.5"></path><path id="kity_path_475" fill="none" stroke="gray" d="M793,162.5L802,162.5"></path></g><path id="node_outline55" fill="none" stroke="none" d="M808.5,151.5h35a5,5,0,0,1,5,5v12a5,5,0,0,1,-5,5h-35a5,5,0,0,1,-5,-5v-12a5,5,0,0,1,5,-5z" stroke-width="3"></path><g id="node_text55" fill="black"><text id="kity_text_471" text-rendering="inherit" font-size="12" dy=".8em" y="154.70000004768372" x="813.5">系统</text></g></g><g id="minder_node3" opacity="1"><g id="node_expander2" style="cursor: pointer;" display="none"><path id="kity_path_44" fill="white" stroke="gray" d="M912.5,292.5A6,6,0,1,1,900.5,292.5A6,6,0,1,1,912.5,292.5"></path><path id="kity_path_45" fill="none" stroke="gray" d="M902,292.5L911,292.5"></path></g><path id="node_outline3" fill="none" stroke="none" d="M917.5,281.5h35a5,5,0,0,1,5,5v12a5,5,0,0,1,-5,5h-35a5,5,0,0,1,-5,-5v-12a5,5,0,0,1,5,-5z" stroke-width="3"></path><g id="node_text3" fill="black"><text id="kity_text_41" text-rendering="inherit" font-size="12" dy=".8em" y="284.7000000476837" x="922.5">潜行</text></g></g><g id="minder_node62"><g id="node_expander61" style="cursor: pointer;" display="none"><path id="kity_path_702" fill="white" stroke="gray" d="M912.5,344.5A6,6,0,1,1,900.5,344.5A6,6,0,1,1,912.5,344.5"></path><path id="kity_path_703" fill="none" stroke="gray"></path></g><path id="node_outline62" fill="none" stroke="none" d="M917.5,333.5h60a5,5,0,0,1,5,5v12a5,5,0,0,1,-5,5h-60a5,5,0,0,1,-5,-5v-12a5,5,0,0,1,5,-5z" stroke-width="3"></path><g id="node_text62" fill="black"><text id="kity_text_699" text-rendering="inherit" font-size="12" dy=".8em" y="336.7000000476837" x="922.5">飞行挑战</text></g></g><g id="minder_node63"><g id="node_expander62" style="cursor: pointer;" display="none"><path id="kity_path_710" fill="white" stroke="gray" d="M912.5,396.5A6,6,0,1,1,900.5,396.5A6,6,0,1,1,912.5,396.5"></path><path id="kity_path_711" fill="none" stroke="gray"></path></g><path id="node_outline63" fill="none" stroke="none" d="M917.5,385.5h36a5,5,0,0,1,5,5v12a5,5,0,0,1,-5,5h-36a5,5,0,0,1,-5,-5v-12a5,5,0,0,1,5,-5z" stroke-width="3"></path><g id="node_text63" fill="black"><text id="kity_text_707" text-rendering="inherit" font-size="12" dy=".8em" y="388.7000000476837" x="922.5">空战</text></g></g><g id="minder_node64"><g id="node_expander63" style="cursor: pointer;" display="none"><path id="kity_path_718" fill="white" stroke="gray" d="M912.5,448.5A6,6,0,1,1,900.5,448.5A6,6,0,1,1,912.5,448.5"></path><path id="kity_path_719" fill="none" stroke="gray"></path></g><path id="node_outline64" fill="none" stroke="none" d="M917.5,437.5h60a5,5,0,0,1,5,5v12a5,5,0,0,1,-5,5h-60a5,5,0,0,1,-5,-5v-12a5,5,0,0,1,5,-5z" stroke-width="3"></path><g id="node_text64" fill="black"><text id="kity_text_715" text-rendering="inherit" font-size="12" dy=".8em" y="440.7000000476837" x="922.5">讨价还价</text></g></g><g id="minder_node65"><g id="node_expander64" style="cursor: pointer;" display="none"><path id="kity_path_726" fill="white" stroke="gray" d="M912.5,500.5A6,6,0,1,1,900.5,500.5A6,6,0,1,1,912.5,500.5"></path><path id="kity_path_727" fill="none" stroke="gray"></path></g><path id="node_outline65" fill="none" stroke="none" d="M917.5,489.5h35a5,5,0,0,1,5,5v12a5,5,0,0,1,-5,5h-35a5,5,0,0,1,-5,-5v-12a5,5,0,0,1,5,-5z" stroke-width="3"></path><g id="node_text65" fill="black"><text id="kity_text_723" text-rendering="inherit" font-size="12" dy=".8em" y="492.7000000476837" x="922.5">寻宝</text></g></g><g id="minder_node66"><g id="node_expander65" style="cursor: pointer;" display="none"><path id="kity_path_734" fill="white" stroke="gray" d="M912.5,552.5A6,6,0,1,1,900.5,552.5A6,6,0,1,1,912.5,552.5"></path><path id="kity_path_735" fill="none" stroke="gray"></path></g><path id="node_outline66" fill="none" stroke="none" d="M917.5,541.5h72a5,5,0,0,1,5,5v12a5,5,0,0,1,-5,5h-72a5,5,0,0,1,-5,-5v-12a5,5,0,0,1,5,-5z" stroke-width="3"></path><g id="node_text66" fill="black"><text id="kity_text_731" text-rendering="inherit" font-size="12" dy=".8em" y="544.7000000476837" x="922.5">外卖、快递</text></g></g><g id="minder_node67"><g id="node_expander66" style="cursor: pointer;" display="none"><path id="kity_path_742" fill="white" stroke="gray" d="M912.5,604.5A6,6,0,1,1,900.5,604.5A6,6,0,1,1,912.5,604.5"></path><path id="kity_path_743" fill="none" stroke="gray"></path></g><path id="node_outline67" fill="none" stroke="none" d="M917.5,593.5h60a5,5,0,0,1,5,5v12a5,5,0,0,1,-5,5h-60a5,5,0,0,1,-5,-5v-12a5,5,0,0,1,5,-5z" stroke-width="3"></path><g id="node_text67" fill="black"><text id="kity_text_739" text-rendering="inherit" font-size="12" dy=".8em" y="596.7000000476837" x="922.5">塔防模式</text></g></g><g id="minder_node68"><g id="node_expander67" style="cursor: pointer;" display="none"><path id="kity_path_750" fill="white" stroke="gray" d="M912.5,656.5A6,6,0,1,1,900.5,656.5A6,6,0,1,1,912.5,656.5"></path><path id="kity_path_751" fill="none" stroke="gray"></path></g><path id="node_outline68" fill="none" stroke="none" d="M917.5,645.5h30a5,5,0,0,1,5,5v12a5,5,0,0,1,-5,5h-30a5,5,0,0,1,-5,-5v-12a5,5,0,0,1,5,-5z" stroke-width="3"></path><g id="node_text68" fill="black"><text id="kity_text_747" text-rendering="inherit" font-size="12" dy=".8em" y="648.7000000476837" x="922.5">……</text></g></g><g id="minder_node56"><g id="node_expander55" style="cursor: pointer;"><path id="kity_path_482" fill="white" stroke="gray" d="M803.5,474.5A6,6,0,1,1,791.5,474.5A6,6,0,1,1,803.5,474.5"></path><path id="kity_path_483" fill="none" stroke="gray" d="M793,474.5L802,474.5"></path></g><path id="node_outline56" fill="none" stroke="none" d="M808.5,463.5h59a5,5,0,0,1,5,5v12a5,5,0,0,1,-5,5h-59a5,5,0,0,1,-5,-5v-12a5,5,0,0,1,5,-5z" stroke-width="3"></path><g id="node_text56" fill="black"><text id="kity_text_479" text-rendering="inherit" font-size="12" dy=".8em" y="466.7000000476837" x="813.5">限定玩法</text></g></g></g></g></svg>